<?xml version="1.0" encoding="utf-8"?>
<!-- Svg Vector Icons : http://www.onlinewebfonts.com/icon -->
<!DOCTYPE svg PUBLIC "-//W3C//DTD SVG 1.1//EN" "http://www.w3.org/Graphics/SVG/1.1/DTD/svg11.dtd">
<svg version="1.1" xmlns="http://www.w3.org/2000/svg" xmlns:xlink="http://www.w3.org/1999/xlink" x="0px" y="0px" viewBox="0 0 256 256" enable-background="new 0 0 256 256" xml:space="preserve">
<metadata> Svg Vector Icons : http://www.onlinewebfonts.com/icon </metadata>
<g><g><g><path fill="#f5f5f5" d="M177,21.2c-0.8,0.3-5.6,3.8-10.7,7.6l-9.2,7l0.9,1.7c1.1,2,1.2,5.2,0.2,7c-2.2,4.2-7.7,4.8-10.7,1.2l-1.3-1.5L79.4,95c-64.1,48.7-66.9,50.9-68.2,53.3c-1.5,3-1.6,5.6-0.2,8.3c1.2,2.4,15.4,21.1,16.2,21.4c0.3,0.1,1.5,0,2.5-0.3c1.1-0.3,3.5-0.5,5.4-0.5c6.4,0,11.4,2.2,16,6.9c4.9,5.2,7.1,12.3,5.7,19c-0.4,1.9-1.4,4.9-2.2,6.5l-1.5,3l7.3,9.6c4,5.3,7.9,10.2,8.6,10.8c2.4,2.3,7,2.9,10.1,1.4c0.9-0.4,31.7-23.6,68.3-51.5l66.6-50.7l-0.6-1.8c-1.5-4.4,1.8-9.1,6.3-9.1c1.6,0,3.6,0.9,4.6,2c0.5,0.6,2-0.4,10-6.5c8.3-6.3,9.6-7.5,10.6-9.5c1.4-2.9,1.5-5.5,0.1-8.2c-0.6-1.1-4.3-6.3-8.3-11.5l-7.2-9.5l-2.2,0.6c-3.1,0.9-8.7,0.8-12.2-0.3c-3.2-1-7.7-3.7-9.6-5.8c-6.5-7.1-7.8-17.9-3.2-26.3l1.3-2.3l-7.3-9.7c-4.1-5.3-7.9-10.2-8.6-11C185,20.8,180.3,19.8,177,21.2z M169.6,52.9c1.8,1.2,2.7,3.1,2.7,5.7c0,4.1-2.6,6.9-6.5,6.9c-6.9,0-9-9.8-2.7-13C165.4,51.3,167.5,51.4,169.6,52.9z M182.9,70.3c2.8,2.1,3.7,6.4,2,9.5c-1.1,1.9-4.5,3.7-6.4,3.3c-3.4-0.7-5.8-3.5-5.8-6.9C172.7,70.7,178.8,67.2,182.9,70.3z M149,80.5c1,0.5,2.5,1.6,3.3,2.4c2.5,2.7,24.9,32,25.8,33.6c0.6,1.2,0.7,2.4,0.6,4.7c-0.1,2.6-0.4,3.4-1.6,4.9c-1.8,2.3-80.1,63.1-82.4,64c-3,1.2-6.4,0.7-9.2-1.2c-1.7-1.2-26.6-33.2-27.4-35.4c-1.1-2.5-0.6-6.9,0.8-9c1.2-1.7,79.2-62.5,82-64C142.9,79.3,146.6,79.3,149,80.5z M195.8,87.5c2.4,1.7,3.4,3.3,3.4,5.8c0,4.3-2.7,7.1-6.7,7.1c-2.5,0-4.7-1.5-5.7-4C184.3,90.4,190.7,84.1,195.8,87.5z M209.2,104.8c1.8,0.9,3.7,4.1,3.7,6.1c0,0.6-0.4,2-0.9,3.1c-2.3,5-8.9,5.1-11.6,0.1c-1.2-2.1-1.1-4.1,0.2-6.5C202.3,104.3,205.9,103.1,209.2,104.8z"/></g></g></g>
</svg>